<svg width="10" height="10" viewBox="0 0 10 10" fill="none" xmlns="http://www.w3.org/2000/svg">
<path d="M5.41667 0C5.55473 0.000153133 5.68752 0.0530179 5.78791 0.147793C5.8883 0.242568 5.94871 0.3721 5.9568 0.509922C5.96489 0.647745 5.92005 0.783455 5.83144 0.889326C5.74283 0.995196 5.61714 1.06324 5.48004 1.07954L5.41667 1.08333H1.08333V8.66667H8.66667V4.33333C8.66682 4.19527 8.71968 4.06248 8.81446 3.96209C8.90924 3.8617 9.03877 3.80129 9.17659 3.7932C9.31441 3.78511 9.45012 3.82995 9.55599 3.91856C9.66186 4.00717 9.7299 4.13286 9.74621 4.26996L9.75 4.33333V8.66667C9.75009 8.93998 9.64686 9.20322 9.46102 9.40363C9.27518 9.60404 9.02046 9.72679 8.74792 9.74729L8.66667 9.75H1.08333C0.810021 9.75009 0.546776 9.64686 0.34637 9.46102C0.145963 9.27518 0.0232069 9.02046 0.00270845 8.74792L5.43118e-08 8.66667V1.08333C-8.64387e-05 0.810021 0.103137 0.546776 0.288978 0.34637C0.474818 0.145963 0.729541 0.0232068 1.00208 0.0027084L1.08333 0H5.41667ZM8.79829 0.185792C8.89577 0.0886448 9.02657 0.0322435 9.16413 0.0280431C9.30168 0.0238427 9.43568 0.0721582 9.5389 0.163176C9.64212 0.254195 9.70683 0.381091 9.71988 0.51809C9.73293 0.65509 9.69335 0.791921 9.60917 0.900792L9.56421 0.95225L4.20171 6.31421C4.10423 6.41136 3.97343 6.46776 3.83588 6.47196C3.69832 6.47616 3.56432 6.42784 3.4611 6.33682C3.35788 6.24581 3.29317 6.11891 3.28012 5.98191C3.26707 5.84491 3.30665 5.70808 3.39083 5.59921L3.43579 5.54829L8.79829 0.185792Z" fill="black"/>
</svg>
